<svg xmlns="http://www.w3.org/2000/svg" xmlns:xlink="http://www.w3.org/1999/xlink" width="200" zoomAndPan="magnify" viewBox="0 0 150 149.999998" height="200" preserveAspectRatio="xMidYMid meet" version="1.0"><defs><g/></defs><g fill="#ff00ff" fill-opacity="1"><g transform="translate(36.985441, 31.712153)"><g><path d="M 4.765625 -8.125 L 11.488281 -8.125 L 11.488281 -3.363281 L 14.851562 -3.363281 L 14.851562 -8.125 L 11.488281 -8.125 L 11.488281 -11.488281 L 4.765625 -11.488281 L 4.765625 -16.253906 L 11.488281 -16.253906 L 11.488281 -11.488281 L 14.851562 -11.488281 L 14.851562 -16.253906 L 11.488281 -16.253906 L 11.488281 -19.617188 L 1.402344 -19.617188 L 1.402344 0 L 11.488281 0 L 11.488281 -3.363281 L 4.765625 -3.363281 Z M 4.765625 -8.125 "/></g></g></g><g fill="#ff00ff" fill-opacity="1"><g transform="translate(56.208454, 31.712153)"><g><path d="M 1.402344 -19.617188 L 1.402344 0 L 14.851562 0 L 14.851562 -3.363281 L 4.765625 -3.363281 L 4.765625 -19.617188 Z M 1.402344 -19.617188 "/></g></g></g><g fill="#ff00ff" fill-opacity="1"><g transform="translate(75.431467, 31.712153)"><g><path d="M 4.765625 -3.363281 L 4.765625 -19.617188 L 1.402344 -19.617188 L 1.402344 -3.363281 L 4.765625 -3.363281 L 4.765625 0 L 11.488281 0 L 11.488281 -3.363281 Z M 11.488281 -19.617188 L 11.488281 -3.363281 L 14.851562 -3.363281 L 14.851562 -19.617188 Z M 11.488281 -19.617188 "/></g></g></g><g fill="#ff00ff" fill-opacity="1"><g transform="translate(94.654482, 31.712153)"><g><path d="M 1.402344 -19.617188 L 1.402344 0 L 14.851562 0 L 14.851562 -3.363281 L 4.765625 -3.363281 L 4.765625 -8.125 L 11.488281 -8.125 L 11.488281 -11.488281 L 4.765625 -11.488281 L 4.765625 -16.253906 L 14.851562 -16.253906 L 14.851562 -19.617188 Z M 1.402344 -19.617188 "/></g></g></g><g fill="#00ffff" fill-opacity="1"><g transform="translate(39.092867, 32.237593)"><g><path d="M 4.765625 -8.125 L 11.488281 -8.125 L 11.488281 -3.363281 L 14.851562 -3.363281 L 14.851562 -8.125 L 11.488281 -8.125 L 11.488281 -11.488281 L 4.765625 -11.488281 L 4.765625 -16.253906 L 11.488281 -16.253906 L 11.488281 -11.488281 L 14.851562 -11.488281 L 14.851562 -16.253906 L 11.488281 -16.253906 L 11.488281 -19.617188 L 1.402344 -19.617188 L 1.402344 0 L 11.488281 0 L 11.488281 -3.363281 L 4.765625 -3.363281 Z M 4.765625 -8.125 "/></g></g></g><g fill="#00ffff" fill-opacity="1"><g transform="translate(58.31588, 32.237593)"><g><path d="M 1.402344 -19.617188 L 1.402344 0 L 14.851562 0 L 14.851562 -3.363281 L 4.765625 -3.363281 L 4.765625 -19.617188 Z M 1.402344 -19.617188 "/></g></g></g><g fill="#00ffff" fill-opacity="1"><g transform="translate(77.538893, 32.237593)"><g><path d="M 4.765625 -3.363281 L 4.765625 -19.617188 L 1.402344 -19.617188 L 1.402344 -3.363281 L 4.765625 -3.363281 L 4.765625 0 L 11.488281 0 L 11.488281 -3.363281 Z M 11.488281 -19.617188 L 11.488281 -3.363281 L 14.851562 -3.363281 L 14.851562 -19.617188 Z M 11.488281 -19.617188 "/></g></g></g><g fill="#00ffff" fill-opacity="1"><g transform="translate(96.761908, 32.237593)"><g><path d="M 1.402344 -19.617188 L 1.402344 0 L 14.851562 0 L 14.851562 -3.363281 L 4.765625 -3.363281 L 4.765625 -8.125 L 11.488281 -8.125 L 11.488281 -11.488281 L 4.765625 -11.488281 L 4.765625 -16.253906 L 14.851562 -16.253906 L 14.851562 -19.617188 Z M 1.402344 -19.617188 "/></g></g></g><g fill="#3b1b72" fill-opacity="1"><g transform="translate(38.039154, 31.974873)"><g><path d="M 4.765625 -8.125 L 11.488281 -8.125 L 11.488281 -3.363281 L 14.851562 -3.363281 L 14.851562 -8.125 L 11.488281 -8.125 L 11.488281 -11.488281 L 4.765625 -11.488281 L 4.765625 -16.253906 L 11.488281 -16.253906 L 11.488281 -11.488281 L 14.851562 -11.488281 L 14.851562 -16.253906 L 11.488281 -16.253906 L 11.488281 -19.617188 L 1.402344 -19.617188 L 1.402344 0 L 11.488281 0 L 11.488281 -3.363281 L 4.765625 -3.363281 Z M 4.765625 -8.125 "/></g></g></g><g fill="#3b1b72" fill-opacity="1"><g transform="translate(57.262167, 31.974873)"><g><path d="M 1.402344 -19.617188 L 1.402344 0 L 14.851562 0 L 14.851562 -3.363281 L 4.765625 -3.363281 L 4.765625 -19.617188 Z M 1.402344 -19.617188 "/></g></g></g><g fill="#3b1b72" fill-opacity="1"><g transform="translate(76.48518, 31.974873)"><g><path d="M 4.765625 -3.363281 L 4.765625 -19.617188 L 1.402344 -19.617188 L 1.402344 -3.363281 L 4.765625 -3.363281 L 4.765625 0 L 11.488281 0 L 11.488281 -3.363281 Z M 11.488281 -19.617188 L 11.488281 -3.363281 L 14.851562 -3.363281 L 14.851562 -19.617188 Z M 11.488281 -19.617188 "/></g></g></g><g fill="#3b1b72" fill-opacity="1"><g transform="translate(95.708195, 31.974873)"><g><path d="M 1.402344 -19.617188 L 1.402344 0 L 14.851562 0 L 14.851562 -3.363281 L 4.765625 -3.363281 L 4.765625 -8.125 L 11.488281 -8.125 L 11.488281 -11.488281 L 4.765625 -11.488281 L 4.765625 -16.253906 L 14.851562 -16.253906 L 14.851562 -19.617188 Z M 1.402344 -19.617188 "/></g></g></g><g fill="#ff00ff" fill-opacity="1"><g transform="translate(34.964568, 56.846821)"><g><path d="M 1.402344 -19.617188 L 1.402344 0 L 14.851562 0 L 14.851562 -3.363281 L 4.765625 -3.363281 L 4.765625 -19.617188 Z M 1.402344 -19.617188 "/></g></g></g><g fill="#ff00ff" fill-opacity="1"><g transform="translate(54.187581, 56.846821)"><g><path d="M 4.765625 -16.253906 L 11.488281 -16.253906 L 11.488281 -11.488281 L 4.765625 -11.488281 L 4.765625 -16.253906 L 1.402344 -16.253906 L 1.402344 0 L 4.765625 0 L 4.765625 -8.125 L 11.488281 -8.125 L 11.488281 0 L 14.851562 0 L 14.851562 -16.253906 L 11.488281 -16.253906 L 11.488281 -19.617188 L 4.765625 -19.617188 Z M 4.765625 -16.253906 "/></g></g></g><g fill="#ff00ff" fill-opacity="1"><g transform="translate(73.410594, 56.846821)"><g><path d="M 1.402344 -19.617188 L 1.402344 0 L 4.765625 0 L 4.765625 -12.890625 L 8.125 -12.890625 L 8.125 -9.527344 L 11.488281 -9.527344 L 11.488281 -6.164062 L 14.851562 -6.164062 L 14.851562 0 L 18.214844 0 L 18.214844 -19.617188 L 14.851562 -19.617188 L 14.851562 -9.527344 L 11.488281 -9.527344 L 11.488281 -12.890625 L 8.125 -12.890625 L 8.125 -16.253906 L 4.765625 -16.253906 L 4.765625 -19.617188 Z M 1.402344 -19.617188 "/></g></g></g><g fill="#ff00ff" fill-opacity="1"><g transform="translate(95.996166, 56.846821)"><g><path d="M 1.402344 -16.253906 L 1.402344 -3.363281 L 4.765625 -3.363281 L 4.765625 0 L 11.488281 0 L 11.488281 -3.363281 L 4.765625 -3.363281 L 4.765625 -16.253906 Z M 4.765625 -19.617188 L 4.765625 -16.253906 L 11.488281 -16.253906 L 11.488281 -12.890625 L 14.851562 -12.890625 L 14.851562 -16.253906 L 11.488281 -16.253906 L 11.488281 -19.617188 Z M 14.851562 -3.363281 L 14.851562 -9.808594 L 8.125 -9.808594 L 8.125 -6.445312 L 11.488281 -6.445312 L 11.488281 -3.363281 Z M 14.851562 -3.363281 "/></g></g></g><g fill="#00ffff" fill-opacity="1"><g transform="translate(37.75181, 57.541757)"><g><path d="M 1.402344 -19.617188 L 1.402344 0 L 14.851562 0 L 14.851562 -3.363281 L 4.765625 -3.363281 L 4.765625 -19.617188 Z M 1.402344 -19.617188 "/></g></g></g><g fill="#00ffff" fill-opacity="1"><g transform="translate(56.974823, 57.541757)"><g><path d="M 4.765625 -16.253906 L 11.488281 -16.253906 L 11.488281 -11.488281 L 4.765625 -11.488281 L 4.765625 -16.253906 L 1.402344 -16.253906 L 1.402344 0 L 4.765625 0 L 4.765625 -8.125 L 11.488281 -8.125 L 11.488281 0 L 14.851562 0 L 14.851562 -16.253906 L 11.488281 -16.253906 L 11.488281 -19.617188 L 4.765625 -19.617188 Z M 4.765625 -16.253906 "/></g></g></g><g fill="#00ffff" fill-opacity="1"><g transform="translate(76.197836, 57.541757)"><g><path d="M 1.402344 -19.617188 L 1.402344 0 L 4.765625 0 L 4.765625 -12.890625 L 8.125 -12.890625 L 8.125 -9.527344 L 11.488281 -9.527344 L 11.488281 -6.164062 L 14.851562 -6.164062 L 14.851562 0 L 18.214844 0 L 18.214844 -19.617188 L 14.851562 -19.617188 L 14.851562 -9.527344 L 11.488281 -9.527344 L 11.488281 -12.890625 L 8.125 -12.890625 L 8.125 -16.253906 L 4.765625 -16.253906 L 4.765625 -19.617188 Z M 1.402344 -19.617188 "/></g></g></g><g fill="#00ffff" fill-opacity="1"><g transform="translate(98.783407, 57.541757)"><g><path d="M 1.402344 -16.253906 L 1.402344 -3.363281 L 4.765625 -3.363281 L 4.765625 0 L 11.488281 0 L 11.488281 -3.363281 L 4.765625 -3.363281 L 4.765625 -16.253906 Z M 4.765625 -19.617188 L 4.765625 -16.253906 L 11.488281 -16.253906 L 11.488281 -12.890625 L 14.851562 -12.890625 L 14.851562 -16.253906 L 11.488281 -16.253906 L 11.488281 -19.617188 Z M 14.851562 -3.363281 L 14.851562 -9.808594 L 8.125 -9.808594 L 8.125 -6.445312 L 11.488281 -6.445312 L 11.488281 -3.363281 Z M 14.851562 -3.363281 "/></g></g></g><g fill="#3b1b72" fill-opacity="1"><g transform="translate(36.358189, 57.194289)"><g><path d="M 1.402344 -19.617188 L 1.402344 0 L 14.851562 0 L 14.851562 -3.363281 L 4.765625 -3.363281 L 4.765625 -19.617188 Z M 1.402344 -19.617188 "/></g></g></g><g fill="#3b1b72" fill-opacity="1"><g transform="translate(55.581201, 57.194289)"><g><path d="M 4.765625 -16.253906 L 11.488281 -16.253906 L 11.488281 -11.488281 L 4.765625 -11.488281 L 4.765625 -16.253906 L 1.402344 -16.253906 L 1.402344 0 L 4.765625 0 L 4.765625 -8.125 L 11.488281 -8.125 L 11.488281 0 L 14.851562 0 L 14.851562 -16.253906 L 11.488281 -16.253906 L 11.488281 -19.617188 L 4.765625 -19.617188 Z M 4.765625 -16.253906 "/></g></g></g><g fill="#3b1b72" fill-opacity="1"><g transform="translate(74.804214, 57.194289)"><g><path d="M 1.402344 -19.617188 L 1.402344 0 L 4.765625 0 L 4.765625 -12.890625 L 8.125 -12.890625 L 8.125 -9.527344 L 11.488281 -9.527344 L 11.488281 -6.164062 L 14.851562 -6.164062 L 14.851562 0 L 18.214844 0 L 18.214844 -19.617188 L 14.851562 -19.617188 L 14.851562 -9.527344 L 11.488281 -9.527344 L 11.488281 -12.890625 L 8.125 -12.890625 L 8.125 -16.253906 L 4.765625 -16.253906 L 4.765625 -19.617188 Z M 1.402344 -19.617188 "/></g></g></g><g fill="#3b1b72" fill-opacity="1"><g transform="translate(97.389786, 57.194289)"><g><path d="M 1.402344 -16.253906 L 1.402344 -3.363281 L 4.765625 -3.363281 L 4.765625 0 L 11.488281 0 L 11.488281 -3.363281 L 4.765625 -3.363281 L 4.765625 -16.253906 Z M 4.765625 -19.617188 L 4.765625 -16.253906 L 11.488281 -16.253906 L 11.488281 -12.890625 L 14.851562 -12.890625 L 14.851562 -16.253906 L 11.488281 -16.253906 L 11.488281 -19.617188 Z M 14.851562 -3.363281 L 14.851562 -9.808594 L 8.125 -9.808594 L 8.125 -6.445312 L 11.488281 -6.445312 L 11.488281 -3.363281 Z M 14.851562 -3.363281 "/></g></g></g></svg>